<svg xmlns="http://www.w3.org/2000/svg" viewBox="0 0 16 16"><rect width="16" height="16" rx="3.5" fill="#0b0b0d"/><rect x="1.5" y="1.5" width="1.0" height="1.0" rx="0.3" fill="#EAF0FF"/><rect x="5.2" y="1.2" width="1.5" height="1.5" rx="0.3" fill="#EAF0FF"/><rect x="9.0" y="1.0" width="2.0" height="2.0" rx="0.3" fill="#EAF0FF"/><rect x="12.8" y="0.8" width="2.5" height="2.5" rx="0.3" fill="#EAF0FF"/><rect x="1.2" y="5.2" width="1.5" height="1.5" rx="0.3" fill="#EAF0FF"/><rect x="5.0" y="5.0" width="2.0" height="2.0" rx="0.3" fill="#EAF0FF"/><rect x="8.8" y="4.8" width="2.5" height="2.5" rx="0.3" fill="#EAF0FF"/><rect x="12.5" y="4.5" width="3.0" height="3.0" rx="0.3" fill="#EAF0FF"/><rect x="1.0" y="9.0" width="2.0" height="2.0" rx="0.3" fill="#EAF0FF"/><rect x="4.8" y="8.8" width="2.5" height="2.5" rx="0.3" fill="#EAF0FF"/><rect x="8.5" y="8.5" width="3.0" height="3.0" rx="0.3" fill="#EAF0FF"/><rect x="12.2" y="8.2" width="3.5" height="3.5" rx="0.3" fill="#EAF0FF"/><rect x="0.8" y="12.8" width="2.5" height="2.5" rx="0.3" fill="#EAF0FF"/><rect x="4.5" y="12.5" width="3.0" height="3.0" rx="0.3" fill="#EAF0FF"/><rect x="8.2" y="12.2" width="3.5" height="3.5" rx="0.3" fill="#EAF0FF"/><rect x="12.0" y="12.0" width="4.0" height="4.0" rx="0.3" fill="#EAF0FF"/></svg>